<?xml version="1.0" encoding="UTF-8"?>
<svg width="296px" height="59px" viewBox="0 0 296 59" version="1.1" xmlns="http://www.w3.org/2000/svg" xmlns:xlink="http://www.w3.org/1999/xlink">
    <!-- Generator: Sketch 54.1 (76490) - https://sketchapp.com -->
    <title>Group 4</title>
    <desc>Created with Sketch.</desc>
    <defs>
        <path d="M189.054,34.264 C187.304658,34.3186669 185.753507,34.7218296 184.4005,35.4735 C183.047493,36.2251704 182.084003,37.297993 181.51,38.692 L181.51,51.812 L177,51.812 L177,30.369 L181.182,30.369 L181.182,35.166 C181.920004,33.6899926 182.883494,32.5078378 184.0725,31.6195 C185.261506,30.7311622 186.539327,30.2460004 187.906,30.164 L188.5825,30.164 C188.760168,30.164 188.917333,30.1776665 189.054,30.205 L189.054,34.264 Z M200.903,52.222 C199.208325,52.222 197.684507,51.9213363 196.3315,51.32 C194.978493,50.7186637 193.823671,49.9123384 192.867,48.901 C191.910329,47.8896616 191.172336,46.7075068 190.653,45.3545 C190.133664,44.0014932 189.874,42.5870074 189.874,41.111 C189.874,39.6349926 190.133664,38.2205068 190.653,36.8675 C191.172336,35.5144932 191.917162,34.3323384 192.8875,33.321 C193.857838,32.3096616 195.019493,31.5033363 196.3725,30.902 C197.725507,30.3006637 199.235658,30 200.903,30 C202.570342,30 204.080493,30.3006637 205.4335,30.902 C206.786507,31.5033363 207.948162,32.3096616 208.9185,33.321 C209.888838,34.3323384 210.633664,35.5144932 211.153,36.8675 C211.672336,38.2205068 211.932,39.6349926 211.932,41.111 C211.932,42.5870074 211.672336,44.0014932 211.153,45.3545 C210.633664,46.7075068 209.888838,47.8896616 208.9185,48.901 C207.948162,49.9123384 206.786507,50.7186637 205.4335,51.32 C204.080493,51.9213363 202.570342,52.222 200.903,52.222 Z M194.507,41.152 C194.507,42.1906719 194.670998,43.147329 194.999,44.022 C195.327002,44.896671 195.777997,45.6551635 196.352,46.2975 C196.926003,46.9398365 197.602496,47.4454982 198.3815,47.8145 C199.160504,48.1835018 200.000995,48.368 200.903,48.368 C201.805005,48.368 202.645496,48.1835018 203.4245,47.8145 C204.203504,47.4454982 204.879997,46.9330033 205.454,46.277 C206.028003,45.6209967 206.478998,44.855671 206.807,43.981 C207.135002,43.106329 207.299,42.1496719 207.299,41.111 C207.299,40.0996616 207.135002,39.1498378 206.807,38.2615 C206.478998,37.3731622 206.028003,36.6010033 205.454,35.945 C204.879997,35.2889967 204.203504,34.7765018 203.4245,34.4075 C202.645496,34.0384982 201.805005,33.854 200.903,33.854 C200.028329,33.854 199.201504,34.0453314 198.4225,34.428 C197.643496,34.8106686 196.967003,35.3299967 196.393,35.986 C195.818997,36.6420033 195.361168,37.4141622 195.0195,38.3025 C194.677832,39.1908378 194.507,40.1406616 194.507,41.152 Z M225.585,52.222 C223.890325,52.222 222.366507,51.9213363 221.0135,51.32 C219.660493,50.7186637 218.505671,49.9123384 217.549,48.901 C216.592329,47.8896616 215.854336,46.7075068 215.335,45.3545 C214.815664,44.0014932 214.556,42.5870074 214.556,41.111 C214.556,39.6349926 214.815664,38.2205068 215.335,36.8675 C215.854336,35.5144932 216.599162,34.3323384 217.5695,33.321 C218.539838,32.3096616 219.701493,31.5033363 221.0545,30.902 C222.407507,30.3006637 223.917658,30 225.585,30 C227.252342,30 228.762493,30.3006637 230.1155,30.902 C231.468507,31.5033363 232.630162,32.3096616 233.6005,33.321 C234.570838,34.3323384 235.315664,35.5144932 235.835,36.8675 C236.354336,38.2205068 236.614,39.6349926 236.614,41.111 C236.614,42.5870074 236.354336,44.0014932 235.835,45.3545 C235.315664,46.7075068 234.570838,47.8896616 233.6005,48.901 C232.630162,49.9123384 231.468507,50.7186637 230.1155,51.32 C228.762493,51.9213363 227.252342,52.222 225.585,52.222 Z M219.189,41.152 C219.189,42.1906719 219.352998,43.147329 219.681,44.022 C220.009002,44.896671 220.459997,45.6551635 221.034,46.2975 C221.608003,46.9398365 222.284496,47.4454982 223.0635,47.8145 C223.842504,48.1835018 224.682995,48.368 225.585,48.368 C226.487005,48.368 227.327496,48.1835018 228.1065,47.8145 C228.885504,47.4454982 229.561997,46.9330033 230.136,46.277 C230.710003,45.6209967 231.160998,44.855671 231.489,43.981 C231.817002,43.106329 231.981,42.1496719 231.981,41.111 C231.981,40.0996616 231.817002,39.1498378 231.489,38.2615 C231.160998,37.3731622 230.710003,36.6010033 230.136,35.945 C229.561997,35.2889967 228.885504,34.7765018 228.1065,34.4075 C227.327496,34.0384982 226.487005,33.854 225.585,33.854 C224.710329,33.854 223.883504,34.0453314 223.1045,34.428 C222.325496,34.8106686 221.649003,35.3299967 221.075,35.986 C220.500997,36.6420033 220.043168,37.4141622 219.7015,38.3025 C219.359832,39.1908378 219.189,40.1406616 219.189,41.152 Z M273.432,51.812 L268.922,51.812 L268.922,39.799 C268.922,37.8036567 268.594003,36.341338 267.938,35.412 C267.281997,34.482662 266.32534,34.018 265.068,34.018 C263.783327,34.018 262.614839,34.4894953 261.5625,35.4325 C260.510161,36.3755047 259.751669,37.5986592 259.287,39.102 L259.287,51.812 L254.777,51.812 L254.777,39.799 C254.777,37.7763232 254.449003,36.3071712 253.793,35.3915 C253.136997,34.4758288 252.194006,34.018 250.964,34.018 C249.679327,34.018 248.504005,34.482662 247.438,35.412 C246.371995,36.341338 245.606669,37.5576592 245.142,39.061 L245.142,51.812 L240.632,51.812 L240.632,30.369 L244.732,30.369 L244.732,34.674 C245.579338,33.1706592 246.69316,32.0158374 248.0735,31.2095 C249.45384,30.4031626 251.032324,30 252.809,30 C254.585676,30 255.986495,30.464662 257.0115,31.394 C258.036505,32.323338 258.671999,33.484993 258.918,34.879 C259.820005,33.2936587 260.954327,32.0841708 262.321,31.2505 C263.687674,30.4168292 265.245658,30 266.995,30 C268.25234,30 269.297829,30.2391643 270.1315,30.7175 C270.965171,31.1958357 271.627998,31.8313294 272.12,32.624 C272.612002,33.4166706 272.953666,34.3391614 273.145,35.3915 C273.336334,36.4438386 273.432,37.5576608 273.432,38.733 L273.432,51.812 Z M286.429,52.222 C284.706991,52.222 282.991842,51.9418361 281.2835,51.3815 C279.575158,50.8211639 278.106006,50.0216719 276.876,48.983 L278.68,46.113 C279.964673,47.042338 281.23566,47.7461643 282.493,48.2245 C283.75034,48.7028357 285.034993,48.942 286.347,48.942 C287.68634,48.942 288.745496,48.6823359 289.5245,48.163 C290.303504,47.6436641 290.693,46.9056714 290.693,45.949 C290.693,45.0469955 290.255671,44.391002 289.381,43.981 C288.506329,43.5709979 287.139676,43.1200025 285.281,42.628 C283.94166,42.2726649 282.793671,41.9310016 281.837,41.603 C280.880329,41.2749984 280.101336,40.8923355 279.5,40.455 C278.898664,40.0176645 278.461335,39.5120029 278.188,38.938 C277.914665,38.3639971 277.778,37.6670041 277.778,36.847 C277.778,35.7536612 277.989831,34.7833376 278.4135,33.936 C278.837169,33.0886624 279.42483,32.3711696 280.1765,31.7835 C280.92817,31.1958304 281.809662,30.7516682 282.821,30.451 C283.832338,30.1503318 284.925661,30 286.101,30 C287.713675,30 289.216993,30.2459975 290.611,30.738 C292.005007,31.2300025 293.248661,31.940662 294.342,32.87 L292.415,35.576 C290.419657,33.9906587 288.301345,33.198 286.06,33.198 C284.911994,33.198 283.948504,33.4371643 283.1695,33.9155 C282.390496,34.3938357 282.001,35.1523281 282.001,36.191 C282.001,36.6283355 282.082999,36.9973318 282.247,37.298 C282.411001,37.5986682 282.677498,37.8583322 283.0465,38.077 C283.415502,38.2956678 283.89383,38.4938324 284.4815,38.6715 C285.06917,38.8491676 285.800329,39.0473322 286.675,39.266 C288.123674,39.6213351 289.374161,39.9766649 290.4265,40.332 C291.478839,40.6873351 292.346663,41.1041643 293.03,41.5825 C293.713337,42.0608357 294.218998,42.6211635 294.547,43.2635 C294.875002,43.9058365 295.039,44.6779955 295.039,45.58 C295.039,47.6300102 294.266841,49.2494941 292.7225,50.4385 C291.178159,51.6275059 289.080347,52.222 286.429,52.222 Z" id="path-1"></path>
        <polygon id="path-2" points="29.8622266 36.1575823 0.37933071 36.1575823 0.37933071 0.521046951 29.8622266 0.521046951"></polygon>
        <polygon id="path-4" points="0 0.195358877 0 21.4651916 26.5674346 21.4651916 26.5674346 0.195358877"></polygon>
    </defs>
    <g id="Page-1" stroke="none" stroke-width="1" fill="none" fill-rule="evenodd">
        <g id="Group-4">
            <g id="rooms" fill-rule="nonzero">
                <use fill="#444444" xlink:href="#path-1"></use>
                <use fill="#FFFFFF" xlink:href="#path-1"></use>
            </g>
            <g id="Logo">
                <g id="Page-1">
                    <path d="M132.235483,8.06859147 C132.20314,8.45013492 132.187508,8.83059903 132.187508,9.20944414 C132.190203,12.4603886 133.370726,15.6190502 135.757647,18.0113869 C137.76831,20.0205613 140.319642,21.1759849 143.009511,21.4927685 C141.007472,18.8214247 139.851206,15.5866703 139.851206,12.1927145 C139.851206,11.432326 139.912658,10.6660011 140.029633,9.89859687 C138.031907,8.64603346 135.726922,8.02164058 133.377195,8.01948192 C132.997163,8.01948192 132.616054,8.03621155 132.235483,8.06859147" id="Fill-1" fill="#74D63A"></path>
                    <path d="M142.06714,9.80458716 C141.926448,10.6054506 141.859605,11.4030761 141.859605,12.1926066 C141.859605,15.5147868 143.071394,18.6799244 145.166149,21.2427955 C145.144587,20.9276309 145.132728,20.6130059 145.132728,20.2994603 C145.132728,16.743605 146.439928,13.2438748 149.078047,10.6038316 C150.099011,9.58008635 151.249348,8.75979493 152.482698,8.13594172 C152.241742,5.13864004 151.027797,2.31187264 149.079125,0.000485698867 C145.462088,2.08035618 142.816422,5.55310308 142.06714,9.80458716" id="Fill-3" fill="#74D63A"></path>
                    <path d="M160.757627,7.9732326 C160.378135,7.94085267 159.995947,7.92412304 159.61915,7.92412304 C156.371363,7.92520237 153.215754,9.10922828 150.827216,11.5010254 C148.439756,13.8922828 147.25492,17.0498651 147.25492,20.2997302 C147.25492,20.6796546 147.270014,21.0617377 147.302896,21.4427415 C147.685084,21.4762008 148.067271,21.4918511 148.446225,21.4913114 C151.691316,21.4896924 154.845308,20.3056665 157.234385,17.9160281 C159.622923,15.5236913 160.805603,12.3650297 160.805603,9.1151646 C160.805603,8.73416082 160.79051,8.35423637 160.757627,7.9732326" id="Fill-5" fill="#74D63A"></path>
                    <g id="Group-9" transform="translate(130.989573, 22.640583)">
                        <mask id="mask-3" fill="white">
                            <use xlink:href="#path-2"></use>
                        </mask>
                        <g id="Clip-8"></g>
                        <path d="M24.9665587,4.31867242 C22.3564702,1.96519158 18.9108515,0.521046951 15.1207787,0.521046951 C6.97624592,0.521046951 0.37933071,7.12924987 0.37933071,15.2819752 C0.37933071,18.6198057 1.49840212,21.6910416 3.36621641,24.1632488 C3.7494822,24.6699946 4.14999764,25.1600108 4.59309817,25.6127901 L15.1180834,36.1578521 L25.6452249,25.6127901 C28.2526181,22.9500809 29.8622266,19.3041015 29.8622266,15.2819752 C29.8622266,10.924177 27.9658426,7.02023745 24.9665587,4.31867242" id="Fill-7" fill="#FF9600" mask="url(#mask-3)"></path>
                    </g>
                    <g id="Group-12" transform="translate(0.000000, 30.735564)">
                        <mask id="mask-5" fill="white">
                            <use xlink:href="#path-4"></use>
                        </mask>
                        <g id="Clip-11"></g>
                        <path d="M13.3040665,8.18618457 L9.95763329,19.7301673 C9.67570923,20.7388019 8.74854023,21.4651916 7.7000846,21.4651916 C6.65216801,21.4651916 5.76488885,20.7792768 5.4425359,19.8111171 L0.0805882353,2.89962223 C-0.000269525871,2.69778737 -0.000269525871,2.49595251 -0.000269525871,2.29411765 C-0.000269525871,1.20453319 0.846580759,0.195358877 2.05621287,0.195358877 C2.94295298,0.195358877 3.82969309,0.760388559 4.07172733,1.64813815 L7.65965572,13.9179709 L11.0465178,1.93092283 C11.3284419,0.921748516 12.2556109,0.195358877 13.3040665,0.195358877 C14.3519831,0.195358877 15.319581,1.12412304 15.5211863,1.85051268 L18.9080484,13.9179709 L22.4959768,1.64813815 C22.737472,0.760388559 23.6247511,0.195358877 24.5114912,0.195358877 C25.6003758,0.195358877 26.5674346,1.08364814 26.5674346,2.29411765 C26.5674346,2.49595251 26.5674346,2.69778737 26.4871159,2.89962223 L21.1251682,19.7701025 C20.8028153,20.7792768 19.9155361,21.4651916 18.9080484,21.4651916 C17.8595928,21.4651916 16.9324238,20.7388019 16.6504997,19.7701025 L13.3040665,8.18618457 Z" id="Fill-10" fill="#FFFFFF" mask="url(#mask-5)"></path>
                    </g>
                    <path d="M41.326833,33.0297356 C41.326833,31.859741 42.2141121,30.9309768 43.3827763,30.9309768 C44.5519795,30.9309768 45.4791485,31.859741 45.4791485,33.0297356 L45.4791485,48.6897464 C45.4791485,49.8198057 44.7535849,50.7885051 43.7056683,51.1511603 C41.7300437,51.8376147 39.5932426,52.2008095 37.3761228,52.2008095 C35.0377163,52.2008095 32.9413441,51.5148948 31.4497879,50.0211009 C29.9981216,48.567782 29.3129868,46.4695629 29.3129868,44.0880194 L29.3129868,33.0297356 C29.3129868,31.859741 30.2401558,30.9309768 31.409359,30.9309768 C32.5381334,30.9309768 33.4653024,31.859741 33.4653024,33.0297356 L33.4653024,44.411279 C33.4653024,46.9131678 34.9169687,48.3260119 37.3761228,48.3260119 C38.7469313,48.3260119 40.077311,48.1646519 41.326833,47.841932 L41.326833,33.0297356 Z" id="Fill-13" fill="#FFFFFF"></path>
                    <path d="M61.6173335,38.6798705 C61.6173335,36.2179169 60.1656671,34.7651376 57.6660842,34.7651376 C56.3362436,34.7651376 55.0053248,34.9669725 53.7563419,35.2902321 L53.7563419,50.1018888 C53.7563419,51.2729628 52.8286339,52.2011873 51.7003986,52.2011873 C50.5306563,52.2011873 49.6034873,51.2729628 49.6034873,50.1018888 L49.6034873,34.4424177 C49.6034873,33.3118187 50.2891611,32.3431193 51.3769675,31.9804641 C53.3525922,31.2940097 55.4893933,30.9313546 57.6660842,30.9313546 C60.0449195,30.9313546 62.060973,31.6976794 63.5121003,33.1909336 C64.9637667,34.6442526 65.7701881,36.6620615 65.7701881,39.0025904 L65.7701881,50.1018888 C65.7701881,51.2729628 64.84248,52.2011873 63.6732768,52.2011873 C62.5046126,52.2011873 61.6173335,51.2729628 61.6173335,50.1018888 L61.6173335,38.6798705 Z" id="Fill-15" fill="#FFFFFF"></path>
                    <path d="M81.1703573,36.2181867 C80.0820118,35.2899622 78.6707743,34.7654074 77.2196471,34.7654074 C74.760493,34.7654074 73.3093657,36.2181867 73.3093657,38.6801403 L73.3093657,44.4513222 C73.3093657,46.9542903 74.760493,48.366055 77.2196471,48.366055 C78.5899166,48.366055 79.9208353,48.2046951 81.1703573,47.8420399 L81.1703573,36.2181867 Z M69.1565111,39.0023206 C69.1565111,36.6617917 69.8820748,34.6035078 71.3337411,33.1507285 C72.8258363,31.6569347 74.8812406,30.9310847 77.2196471,30.9310847 C78.5899166,30.9310847 80.0820118,31.4151646 81.1703573,31.9801943 L81.1703573,25.1998381 C81.1703573,24.0287642 82.0570974,23.1005397 83.2268397,23.1005397 C84.3955038,23.1005397 85.3226728,24.0287642 85.3226728,25.1998381 L85.3226728,48.6893146 C85.3226728,49.8199137 84.5971092,50.7886131 83.5491926,51.1512682 C81.5336781,51.8377226 79.396338,52.2009174 77.2196471,52.2009174 C74.8812406,52.2009174 72.8657261,51.4340529 71.37417,49.9407987 C69.9225036,48.4869401 69.1565111,46.4696708 69.1565111,44.0881274 L69.1565111,39.0023206 Z" id="Fill-17" fill="#FFFFFF"></path>
                    <path d="M100.900244,39.6885591 C100.900244,36.3393956 99.5299744,34.7651916 96.9495337,34.7651916 C94.4095219,34.7651916 93.0392524,36.2989207 93.0392524,39.6885591 L100.900244,39.6885591 Z M93.0392524,43.5234215 C93.0392524,45.177496 93.3211765,46.2676201 93.8451348,46.9945494 C94.5308086,47.882299 95.5787252,48.3663788 96.9495337,48.3663788 C98.4820578,48.3663788 99.9326461,47.9227739 101.303994,47.3167296 C101.585379,47.1958446 101.867842,47.1154344 102.150305,47.1154344 C103.157793,47.1154344 104.125391,47.9632488 104.125391,49.0118187 C104.125391,49.7792229 103.803577,50.4656773 103.077474,50.8288721 C101.142817,51.7570966 99.0863348,52.2012412 96.9495337,52.2012412 C94.6111273,52.2012412 92.5956128,51.4343767 91.1040567,49.9405828 C89.6523903,48.4872639 88.8863978,46.4694549 88.8863978,44.0879115 L88.8863978,39.0026444 C88.8863978,36.6621155 89.6523903,34.6443065 91.1040567,33.1909876 C92.5956128,31.6977334 94.6111273,30.9308689 96.9495337,30.9308689 C99.3283691,30.9308689 101.343884,31.6977334 102.79555,33.1909876 C104.246677,34.6443065 105.053099,36.6621155 105.053099,39.0026444 L105.053099,40.8990286 C105.053099,42.3523475 103.883895,43.5234215 102.432229,43.5234215 L93.0392524,43.5234215 Z" id="Fill-19" fill="#FFFFFF"></path>
                    <path d="M108.319051,36.9449002 C108.319051,33.5142472 110.899492,30.9308689 114.326244,30.9308689 C115.333732,30.9308689 116.341219,31.0522936 117.349246,31.2535888 C118.316844,31.4554236 119.001979,32.2627631 119.001979,33.2314625 C119.001979,34.3215866 118.196096,35.1688613 117.026893,35.1688613 C116.785398,35.1688613 116.663572,35.1688613 116.341219,35.0879115 C115.696513,34.9265515 114.970411,34.7651916 114.326244,34.7651916 C113.318217,34.7651916 112.471906,35.6124663 112.471906,36.6216406 L112.471906,50.1019428 C112.471906,51.2730167 111.543659,52.2012412 110.415424,52.2012412 C109.24622,52.2012412 108.319051,51.2730167 108.319051,50.1019428 L108.319051,36.9449002 Z" id="Fill-21" fill="#FFFFFF"></path>
                </g>
            </g>
        </g>
    </g>
</svg>